<?xml version="1.0" encoding="utf-8"?>
<!-- Generator: Adobe Illustrator 22.1.0, SVG Export Plug-In . SVG Version: 6.00 Build 0)  -->
<svg version="1.1" id="Layer_1" xmlns="http://www.w3.org/2000/svg" xmlns:xlink="http://www.w3.org/1999/xlink" x="0px" y="0px"
	 viewBox="0 0 236.7 51" style="enable-background:new 0 0 236.7 51;" xml:space="preserve">
<style type="text/css">
	.st0{fill:#78C08F;}
	.st1{fill:none;}
</style>
<path class="st0" d="M0.1,46.7h1.6v-4.4h1.9l2.7,4.4h1.9l-3-4.8c0.3-0.1,0.6-0.3,0.9-0.5c0.3-0.2,0.5-0.4,0.7-0.7
	c0.2-0.3,0.4-0.6,0.5-0.9c0.1-0.3,0.2-0.7,0.2-1.2c0-0.5-0.1-0.9-0.2-1.4c-0.2-0.4-0.4-0.8-0.7-1.1c-0.3-0.3-0.7-0.5-1.1-0.7
	c-0.5-0.2-1-0.3-1.6-0.3H0.1V46.7z M1.7,36.6h1.6c0.8,0,1.4,0.2,1.8,0.5c0.4,0.3,0.6,0.9,0.6,1.6c0,0.4-0.1,0.7-0.2,1
	c-0.1,0.3-0.3,0.5-0.6,0.6c-0.2,0.2-0.5,0.3-0.8,0.4c-0.3,0.1-0.7,0.1-1,0.1H1.7V36.6z"/>
<path class="st0" d="M17.1,41.7c0-0.5-0.1-1-0.3-1.4c-0.2-0.4-0.4-0.8-0.7-1.1c-0.3-0.3-0.7-0.5-1.1-0.7c-0.4-0.2-0.9-0.3-1.5-0.3
	c-0.6,0-1.2,0.1-1.7,0.3c-0.5,0.2-0.9,0.5-1.3,0.9c-0.4,0.4-0.6,0.8-0.8,1.3c-0.2,0.5-0.3,1.1-0.3,1.7c0,0.7,0.1,1.4,0.4,1.9
	c0.2,0.5,0.6,1,1,1.3c0.4,0.3,0.9,0.6,1.4,0.8c0.5,0.2,1.1,0.2,1.7,0.2c0.5,0,1,0,1.5-0.1c0.5-0.1,0.9-0.2,1.2-0.4L16.3,45
	c-0.4,0.2-0.8,0.3-1.2,0.4c-0.4,0.1-0.8,0.1-1.2,0.1c-0.9,0-1.6-0.3-2.1-0.8c-0.5-0.5-0.8-1.2-0.8-2.2v-0.1h6.1V41.7z M11.1,41.3
	c0.1-0.6,0.4-1.1,0.8-1.5c0.4-0.4,1-0.6,1.6-0.6c0.4,0,0.7,0.1,0.9,0.2c0.3,0.1,0.5,0.3,0.6,0.4c0.2,0.2,0.3,0.4,0.4,0.6
	c0.1,0.2,0.1,0.5,0.1,0.8H11.1z"/>
<path class="st0" d="M20.5,40.6c0.7-0.7,1.5-1.1,2.4-1.1c0.6,0,1,0.2,1.2,0.5c0.3,0.3,0.4,0.7,0.4,1.2v5.5h1.6v-5.8
	c0-0.9-0.2-1.5-0.7-2c-0.5-0.5-1.2-0.7-2-0.7c-0.6,0-1.1,0.1-1.6,0.3c-0.5,0.2-0.9,0.5-1.3,1l-0.2-1.3h-1.2v8.5h1.6V40.6z"/>
<path class="st0" d="M34.5,39c-0.3-0.3-0.7-0.5-1.1-0.6c-0.4-0.1-0.8-0.2-1.3-0.2c-0.6,0-1.1,0.1-1.6,0.3c-0.5,0.2-0.9,0.5-1.2,0.9
	c-0.3,0.4-0.6,0.8-0.7,1.3c-0.2,0.5-0.3,1.1-0.3,1.7c0,0.7,0.1,1.3,0.3,1.9c0.2,0.5,0.5,1,0.8,1.3c0.3,0.3,0.7,0.6,1.1,0.8
	c0.4,0.2,0.9,0.3,1.3,0.3c0.6,0,1.1-0.1,1.4-0.3c0.4-0.2,0.8-0.4,1.1-0.8h0.1l0.2,1.1h1.3V34h-1.6V39z M34.5,44.3
	c-0.6,0.7-1.3,1.1-2.2,1.1c-0.3,0-0.6-0.1-0.9-0.2c-0.3-0.1-0.5-0.3-0.8-0.5c-0.2-0.2-0.4-0.6-0.5-1c-0.1-0.4-0.2-0.9-0.2-1.4
	c0-0.5,0.1-1,0.2-1.4c0.1-0.4,0.3-0.7,0.6-0.9c0.2-0.2,0.5-0.4,0.8-0.5c0.3-0.1,0.6-0.2,0.9-0.2c0.8,0,1.4,0.3,2,1V44.3z"/>
<path class="st0" d="M46.1,41.7c0-0.5-0.1-1-0.3-1.4c-0.2-0.4-0.4-0.8-0.7-1.1c-0.3-0.3-0.7-0.5-1.1-0.7c-0.4-0.2-0.9-0.3-1.5-0.3
	c-0.6,0-1.2,0.1-1.7,0.3c-0.5,0.2-0.9,0.5-1.3,0.9c-0.4,0.4-0.6,0.8-0.8,1.3c-0.2,0.5-0.3,1.1-0.3,1.7c0,0.7,0.1,1.4,0.4,1.9
	s0.6,1,1,1.3c0.4,0.3,0.9,0.6,1.4,0.8c0.5,0.2,1.1,0.2,1.7,0.2c0.5,0,1,0,1.5-0.1c0.5-0.1,0.9-0.2,1.2-0.4L45.3,45
	c-0.4,0.2-0.8,0.3-1.2,0.4c-0.4,0.1-0.8,0.1-1.2,0.1c-0.9,0-1.6-0.3-2.1-0.8c-0.5-0.5-0.8-1.2-0.8-2.2v-0.1h6.1V41.7z M40.1,41.3
	c0.1-0.6,0.4-1.1,0.8-1.5c0.4-0.4,1-0.6,1.6-0.6c0.4,0,0.7,0.1,0.9,0.2c0.3,0.1,0.5,0.3,0.6,0.4s0.3,0.4,0.4,0.6
	c0.1,0.2,0.1,0.5,0.1,0.8H40.1z"/>
<path class="st0" d="M53.6,38.2h-6.1v1.2h4.2l-4.5,6.3v1h6.5v-1.2h-4.6l4.5-6.4V38.2z"/>
<path class="st0" d="M58.3,44L58,45.3h-0.1L57.6,44l-1.9-5.8h-1.7l3.2,8.5h1.5l3.1-8.5h-1.7L58.3,44z"/>
<path class="st0" d="M70.1,41.7c0-0.5-0.1-1-0.3-1.4c-0.2-0.4-0.4-0.8-0.7-1.1c-0.3-0.3-0.7-0.5-1.1-0.7c-0.4-0.2-0.9-0.3-1.5-0.3
	c-0.6,0-1.2,0.1-1.7,0.3c-0.5,0.2-0.9,0.5-1.3,0.9c-0.4,0.4-0.6,0.8-0.8,1.3c-0.2,0.5-0.3,1.1-0.3,1.7c0,0.7,0.1,1.4,0.4,1.9
	s0.6,1,1,1.3c0.4,0.3,0.9,0.6,1.4,0.8c0.5,0.2,1.1,0.2,1.7,0.2c0.5,0,1,0,1.5-0.1c0.5-0.1,0.9-0.2,1.2-0.4L69.3,45
	c-0.4,0.2-0.8,0.3-1.2,0.4c-0.4,0.1-0.8,0.1-1.2,0.1c-0.9,0-1.6-0.3-2.1-0.8c-0.5-0.5-0.8-1.2-0.8-2.2v-0.1h6.1V41.7z M64.1,41.3
	c0.1-0.6,0.4-1.1,0.8-1.5c0.4-0.4,1-0.6,1.6-0.6c0.4,0,0.7,0.1,0.9,0.2c0.3,0.1,0.5,0.3,0.6,0.4s0.3,0.4,0.4,0.6
	c0.1,0.2,0.1,0.5,0.1,0.8H64.1z M66.8,34.1l-1.3,2.4h1.3l1.8-2.4H66.8z"/>
<path class="st0" d="M73.5,40.6c0.7-0.7,1.5-1.1,2.4-1.1c0.6,0,1,0.2,1.2,0.5c0.3,0.3,0.4,0.7,0.4,1.2v5.5h1.6v-5.8
	c0-0.9-0.2-1.5-0.7-2c-0.5-0.5-1.2-0.7-2-0.7c-0.6,0-1.1,0.1-1.6,0.3c-0.5,0.2-0.9,0.5-1.3,1l-0.2-1.3h-1.2v8.5h1.6V40.6z"/>
<path class="st0" d="M84.3,46.7l-0.2,0.5c-0.2,0.7-0.6,1.3-1,1.7c-0.4,0.4-0.9,0.7-1.5,0.9l0.7,1.3c0.8-0.3,1.4-0.7,2-1.3
	c0.5-0.6,1-1.4,1.4-2.4l3.3-9.2h-1.6L85.6,43l-0.6,2h0l-0.6-2l-1.8-4.8h-1.7L84.3,46.7z"/>
<path class="st0" d="M94.1,35.3v11.3h3.1c0.8,0,1.6-0.1,2.4-0.3c0.7-0.2,1.4-0.5,2-1c0.6-0.5,1-1.1,1.4-1.8c0.3-0.8,0.5-1.7,0.5-2.8
	c0-0.9-0.1-1.7-0.4-2.4c-0.3-0.7-0.7-1.2-1.2-1.7c-0.5-0.5-1.1-0.8-1.8-1c-0.7-0.2-1.4-0.3-2.2-0.3H94.1z M95.8,36.7h1.7
	c0.6,0,1.2,0.1,1.7,0.3c0.5,0.2,0.9,0.4,1.3,0.8s0.6,0.8,0.8,1.3c0.2,0.5,0.3,1.1,0.3,1.7c0,0.9-0.1,1.7-0.4,2.3
	c-0.3,0.6-0.6,1.1-1,1.4c-0.4,0.3-0.9,0.6-1.5,0.7c-0.6,0.1-1.1,0.2-1.7,0.2h-1.2V36.7z"/>
<path class="st0" d="M106.6,35.3v10.1c0,0.4,0,0.8-0.1,1.1c-0.1,0.3-0.2,0.6-0.4,0.9c-0.4,0.4-0.9,0.6-1.6,0.6v1.4
	c0.6,0,1.2-0.1,1.7-0.3c0.6-0.2,1-0.5,1.4-1.1c0.3-0.4,0.5-0.9,0.6-1.4c0.1-0.5,0.1-1.2,0.1-2.1v-9.3H106.6z"/>
<path class="st0" d="M122.1,41.7c0-0.5-0.1-1-0.3-1.4c-0.2-0.4-0.4-0.8-0.7-1.1c-0.3-0.3-0.7-0.5-1.1-0.7c-0.4-0.2-0.9-0.3-1.5-0.3
	c-0.6,0-1.2,0.1-1.7,0.3c-0.5,0.2-0.9,0.5-1.3,0.9c-0.4,0.4-0.6,0.8-0.8,1.3c-0.2,0.5-0.3,1.1-0.3,1.7c0,0.7,0.1,1.4,0.4,1.9
	s0.6,1,1,1.3c0.4,0.3,0.9,0.6,1.4,0.8c0.5,0.2,1.1,0.2,1.7,0.2c0.5,0,1,0,1.5-0.1c0.5-0.1,0.9-0.2,1.2-0.4l-0.3-1.2
	c-0.4,0.2-0.8,0.3-1.2,0.4c-0.4,0.1-0.8,0.1-1.2,0.1c-0.9,0-1.6-0.3-2.1-0.8c-0.5-0.5-0.8-1.2-0.8-2.2v-0.1h6.1V41.7z M116.1,41.3
	c0.1-0.6,0.4-1.1,0.8-1.5c0.4-0.4,1-0.6,1.6-0.6c0.4,0,0.7,0.1,0.9,0.2c0.3,0.1,0.5,0.3,0.6,0.4c0.2,0.2,0.3,0.4,0.4,0.6
	c0.1,0.2,0.1,0.5,0.1,0.8H116.1z M118.8,34.1l-1.3,2.4h1.3l1.8-2.4H118.8z"/>
<path class="st0" d="M129,38.7c-0.4-0.2-0.8-0.3-1.3-0.4c-0.4-0.1-0.9-0.1-1.3-0.1c-0.4,0-0.9,0.1-1.2,0.2c-0.4,0.1-0.7,0.3-1,0.5
	c-0.3,0.2-0.5,0.4-0.6,0.7c-0.2,0.3-0.2,0.6-0.2,1c0,0.6,0.2,1.1,0.6,1.4c0.4,0.4,1,0.7,1.7,0.9l0.6,0.2c0.5,0.2,0.9,0.3,1.2,0.5
	c0.3,0.2,0.4,0.4,0.4,0.8c0,0.4-0.2,0.7-0.5,0.9c-0.3,0.2-0.7,0.3-1.3,0.3c-0.4,0-0.8,0-1.2-0.1c-0.4-0.1-0.8-0.2-1.1-0.4l-0.4,1.2
	c0.4,0.2,0.8,0.3,1.3,0.4c0.5,0.1,1,0.1,1.6,0.1c1,0,1.8-0.2,2.4-0.7c0.6-0.5,0.9-1,0.9-1.8c0-0.6-0.2-1.1-0.6-1.5
	c-0.4-0.4-1-0.7-1.8-0.9l-0.5-0.2c-0.6-0.2-1-0.4-1.2-0.5c-0.2-0.2-0.3-0.4-0.3-0.6c0-0.3,0.1-0.6,0.4-0.8c0.3-0.2,0.7-0.3,1.3-0.3
	c0.3,0,0.6,0,1,0.1c0.3,0.1,0.7,0.2,1.1,0.4L129,38.7z"/>
<path class="st0" d="M135.1,46.7h1.7v-4.4h1.7c0.6,0,1.2-0.1,1.7-0.2s0.9-0.4,1.3-0.6c0.4-0.3,0.7-0.7,0.9-1.1
	c0.2-0.4,0.3-1,0.3-1.6c0-0.6-0.1-1-0.3-1.5c-0.2-0.4-0.5-0.8-0.8-1.1c-0.3-0.3-0.8-0.5-1.2-0.7c-0.5-0.1-1-0.2-1.6-0.2h-3.6V46.7z
	 M136.8,36.6h1.5c0.3,0,0.6,0,1,0.1c0.3,0.1,0.6,0.2,0.8,0.4c0.2,0.2,0.4,0.4,0.6,0.7c0.1,0.3,0.2,0.6,0.2,1c0,0.4-0.1,0.8-0.2,1.1
	c-0.2,0.3-0.4,0.5-0.6,0.7c-0.3,0.2-0.6,0.3-1,0.3c-0.4,0.1-0.8,0.1-1.2,0.1h-1V36.6z"/>
<path class="st0" d="M144.6,40.1c0.5-0.3,1-0.4,1.4-0.5c0.4-0.1,0.8-0.1,1.1-0.1c0.5,0,0.9,0.1,1.3,0.3c0.3,0.2,0.5,0.6,0.5,1.1v0.6
	h-1.6c-1.2,0-2.1,0.2-2.8,0.7c-0.7,0.5-1.1,1.1-1.1,2c0,0.4,0.1,0.7,0.2,1c0.1,0.3,0.3,0.6,0.6,0.8c0.3,0.2,0.5,0.4,0.9,0.5
	c0.3,0.1,0.7,0.2,1.1,0.2c0.5,0,1-0.1,1.5-0.2c0.4-0.2,0.9-0.4,1.2-0.8h0l0.2,1.1h1.3v-5.4c0-0.6-0.1-1.1-0.2-1.4
	c-0.2-0.4-0.4-0.7-0.7-0.9c-0.3-0.2-0.6-0.4-1-0.5c-0.4-0.1-0.8-0.2-1.3-0.2c-0.3,0-0.6,0-0.9,0.1c-0.3,0-0.5,0.1-0.8,0.2
	c-0.3,0.1-0.5,0.2-0.8,0.3c-0.3,0.1-0.5,0.2-0.8,0.4L144.6,40.1z M148.8,44.3c-0.3,0.4-0.7,0.7-1.1,0.9c-0.4,0.2-0.8,0.3-1.2,0.3
	c-0.2,0-0.4,0-0.6-0.1c-0.2,0-0.3-0.1-0.5-0.2c-0.1-0.1-0.2-0.2-0.3-0.4c-0.1-0.2-0.1-0.4-0.1-0.6c0-0.4,0.2-0.8,0.6-1.1
	c0.4-0.3,1-0.4,1.9-0.4h1.3V44.3z"/>
<path class="st0" d="M154.5,46.7v-4.3c0-0.4,0.1-0.8,0.2-1.2c0.1-0.3,0.3-0.6,0.5-0.9c0.2-0.2,0.5-0.4,0.8-0.5
	c0.3-0.1,0.6-0.2,1-0.2c0.2,0,0.4,0,0.6,0.1c0.2,0,0.3,0.1,0.5,0.2l0.3-1.5c-0.2,0-0.4-0.1-0.6-0.1c-0.2,0-0.5,0-0.8,0
	c-0.6,0-1.2,0.2-1.6,0.5c-0.5,0.3-0.8,0.8-1,1.3l-0.3-1.8h-1.2v8.5H154.5z"/>
<path class="st0" d="M164.4,38.2h-2.5v-2.7h-1.6v2.7h-1.3v1.2h1.3v5.1c0,0.7,0.2,1.2,0.6,1.6c0.4,0.4,1,0.5,1.8,0.5
	c0.4,0,0.8,0,1.2-0.1c0.4-0.1,0.7-0.2,0.9-0.3l-0.3-1.2c-0.2,0.1-0.5,0.1-0.8,0.2c-0.3,0.1-0.6,0.1-0.8,0.1c-0.3,0-0.6-0.1-0.8-0.2
	c-0.2-0.1-0.3-0.4-0.3-0.8v-4.9h2.5V38.2z"/>
<path class="st0" d="M169.3,46.7l-0.2,0.5c-0.2,0.7-0.6,1.3-1,1.7c-0.4,0.4-0.9,0.7-1.5,0.9l0.7,1.3c0.8-0.3,1.4-0.7,2-1.3
	c0.5-0.6,1-1.4,1.4-2.4l3.3-9.2h-1.6l-1.6,4.8l-0.6,2h0l-0.6-2l-1.8-4.8h-1.7L169.3,46.7z"/>
<path class="st0" d="M180,38.7c-0.4-0.2-0.8-0.3-1.3-0.4c-0.4-0.1-0.9-0.1-1.3-0.1c-0.4,0-0.9,0.1-1.2,0.2c-0.4,0.1-0.7,0.3-1,0.5
	c-0.3,0.2-0.5,0.4-0.6,0.7c-0.2,0.3-0.2,0.6-0.2,1c0,0.6,0.2,1.1,0.6,1.4c0.4,0.4,1,0.7,1.7,0.9l0.6,0.2c0.5,0.2,0.9,0.3,1.2,0.5
	c0.3,0.2,0.4,0.4,0.4,0.8c0,0.4-0.2,0.7-0.5,0.9c-0.3,0.2-0.7,0.3-1.3,0.3c-0.4,0-0.8,0-1.2-0.1c-0.4-0.1-0.8-0.2-1.1-0.4l-0.4,1.2
	c0.4,0.2,0.8,0.3,1.3,0.4c0.5,0.1,1,0.1,1.6,0.1c1,0,1.8-0.2,2.4-0.7c0.6-0.5,0.9-1,0.9-1.8c0-0.6-0.2-1.1-0.6-1.5
	c-0.4-0.4-1-0.7-1.8-0.9l-0.5-0.2c-0.6-0.2-1-0.4-1.2-0.5c-0.2-0.2-0.3-0.4-0.3-0.6c0-0.3,0.1-0.6,0.4-0.8c0.3-0.2,0.7-0.3,1.3-0.3
	c0.3,0,0.6,0,1,0.1c0.3,0.1,0.7,0.2,1.1,0.4L180,38.7z"/>
<path class="st0" d="M187.6,38.2h-6.1v1.2h4.2l-4.5,6.3v1h6.5v-1.2h-4.6l4.5-6.4V38.2z"/>
<path class="st0" d="M196.1,41.7c0-0.5-0.1-1-0.3-1.4c-0.2-0.4-0.4-0.8-0.7-1.1c-0.3-0.3-0.7-0.5-1.1-0.7c-0.4-0.2-0.9-0.3-1.5-0.3
	c-0.6,0-1.2,0.1-1.7,0.3c-0.5,0.2-0.9,0.5-1.3,0.9c-0.4,0.4-0.6,0.8-0.8,1.3c-0.2,0.5-0.3,1.1-0.3,1.7c0,0.7,0.1,1.4,0.4,1.9
	c0.2,0.5,0.6,1,1,1.3c0.4,0.3,0.9,0.6,1.4,0.8c0.5,0.2,1.1,0.2,1.7,0.2c0.5,0,1,0,1.5-0.1c0.5-0.1,0.9-0.2,1.2-0.4l-0.3-1.2
	c-0.4,0.2-0.8,0.3-1.2,0.4c-0.4,0.1-0.8,0.1-1.2,0.1c-0.9,0-1.6-0.3-2.1-0.8c-0.5-0.5-0.8-1.2-0.8-2.2v-0.1h6.1V41.7z M190.1,41.3
	c0.1-0.6,0.4-1.1,0.8-1.5c0.4-0.4,1-0.6,1.6-0.6c0.4,0,0.7,0.1,0.9,0.2c0.3,0.1,0.5,0.3,0.6,0.4s0.3,0.4,0.4,0.6
	c0.1,0.2,0.1,0.5,0.1,0.8H190.1z"/>
<path class="st0" d="M199.5,46.7v-4.3c0-0.4,0.1-0.8,0.2-1.2c0.1-0.3,0.3-0.6,0.5-0.9c0.2-0.2,0.5-0.4,0.8-0.5
	c0.3-0.1,0.6-0.2,1-0.2c0.2,0,0.4,0,0.6,0.1c0.2,0,0.3,0.1,0.5,0.2l0.3-1.5c-0.2,0-0.4-0.1-0.6-0.1c-0.2,0-0.5,0-0.8,0
	c-0.6,0-1.2,0.2-1.6,0.5c-0.5,0.3-0.8,0.8-1,1.3l-0.3-1.8h-1.2v8.5H199.5z"/>
<path class="st0" d="M208.3,44l-0.3,1.3h-0.1l-0.3-1.3l-1.9-5.8h-1.7l3.2,8.5h1.5l3.1-8.5h-1.7L208.3,44z"/>
<path class="st0" d="M220.1,41.7c0-0.5-0.1-1-0.3-1.4c-0.2-0.4-0.4-0.8-0.7-1.1c-0.3-0.3-0.7-0.5-1.1-0.7c-0.4-0.2-0.9-0.3-1.5-0.3
	c-0.6,0-1.2,0.1-1.7,0.3c-0.5,0.2-0.9,0.5-1.3,0.9c-0.4,0.4-0.6,0.8-0.8,1.3c-0.2,0.5-0.3,1.1-0.3,1.7c0,0.7,0.1,1.4,0.4,1.9
	c0.2,0.5,0.6,1,1,1.3c0.4,0.3,0.9,0.6,1.4,0.8c0.5,0.2,1.1,0.2,1.7,0.2c0.5,0,1,0,1.5-0.1c0.5-0.1,0.9-0.2,1.2-0.4l-0.3-1.2
	c-0.4,0.2-0.8,0.3-1.2,0.4c-0.4,0.1-0.8,0.1-1.2,0.1c-0.9,0-1.6-0.3-2.1-0.8c-0.5-0.5-0.8-1.2-0.8-2.2v-0.1h6.1V41.7z M214.1,41.3
	c0.1-0.6,0.4-1.1,0.8-1.5c0.4-0.4,1-0.6,1.6-0.6c0.4,0,0.7,0.1,0.9,0.2c0.3,0.1,0.5,0.3,0.6,0.4s0.3,0.4,0.4,0.6
	c0.1,0.2,0.1,0.5,0.1,0.8H214.1z"/>
<path class="st0" d="M227.6,38.2h-6.1v1.2h4.2l-4.5,6.3v1h6.5v-1.2h-4.6l4.5-6.4V38.2z"/>
<path class="st0" d="M236.4,40.5c-0.2-0.5-0.5-1-0.9-1.3c-0.4-0.3-0.8-0.6-1.3-0.8c-0.5-0.2-1-0.3-1.6-0.3c-0.6,0-1.1,0.1-1.6,0.3
	c-0.5,0.2-0.9,0.5-1.3,0.8c-0.4,0.4-0.7,0.8-0.9,1.4c-0.2,0.5-0.3,1.1-0.3,1.8c0,0.7,0.1,1.3,0.3,1.8c0.2,0.5,0.5,1,0.9,1.3
	c0.4,0.4,0.8,0.6,1.3,0.8c0.5,0.2,1,0.3,1.6,0.3c0.6,0,1.1-0.1,1.6-0.3c0.5-0.2,0.9-0.5,1.3-0.8c0.4-0.4,0.7-0.8,0.9-1.4
	c0.2-0.5,0.3-1.2,0.3-1.8C236.7,41.6,236.6,41,236.4,40.5z M234.8,43.9c-0.1,0.4-0.3,0.7-0.5,0.9c-0.2,0.2-0.5,0.4-0.8,0.5
	c-0.3,0.1-0.6,0.1-0.9,0.1c-0.3,0-0.6-0.1-0.9-0.2c-0.3-0.1-0.6-0.3-0.8-0.5c-0.2-0.2-0.4-0.6-0.6-0.9s-0.2-0.8-0.2-1.4
	c0-0.6,0.1-1.1,0.2-1.5c0.1-0.4,0.3-0.7,0.5-0.9c0.2-0.2,0.5-0.4,0.8-0.5c0.3-0.1,0.6-0.1,0.9-0.1c0.3,0,0.6,0.1,0.9,0.2
	c0.3,0.1,0.6,0.3,0.8,0.5c0.2,0.2,0.4,0.6,0.6,0.9c0.1,0.4,0.2,0.8,0.2,1.4C235,43,235,43.5,234.8,43.9z M233.3,34.1h-1.8l-1.3,2.4
	h1.2L233.3,34.1z M236.2,34.1h-1.8l-1.3,2.4h1.2L236.2,34.1z"/>
<path class="st1" d="M19.9,11.9h-8v2.5h4.9v7.2c-0.7,0.4-2.1,0.6-4.2,0.6c-5.7,0-9.4-3.6-9.4-9.8c0-6.1,3.9-9.8,9.8-9.8
	c2.4,0,4.1,0.5,5.4,1l0.8-2.6c-1-0.5-3.2-1.1-6-1.1C5,0.1,0,5.4,0,12.7c0,3.8,1.3,7,3.4,9c2.4,2.3,5.4,3.2,9.1,3.2
	c3.3,0,6-0.8,7.5-1.3V11.9z"/>
<path class="st1" d="M24.4,0.4v24.3h3.1V0.4H24.4z"/>
<path class="st1" d="M36.4,24.7V14.3c0-4-0.1-6.9-0.3-10l0.1,0c1.2,2.6,2.8,5.4,4.5,8.1l7.7,12.3h3.2V0.4h-3v10.2
	c0,3.8,0.1,6.7,0.4,10l-0.1,0c-1.2-2.5-2.6-5-4.4-7.9L36.9,0.4h-3.4v24.3H36.4z"/>
<path class="st1" d="M70,17l2.6,7.6h3.3L67.6,0.4h-3.8l-8.2,24.3h3.2l2.5-7.6H70z M62,14.6l2.4-7c0.5-1.5,0.9-3,1.2-4.4h0.1
	C66,4.6,66.4,6,66.9,7.6l2.4,7H62z"/>
<path class="st1" d="M86.2,23.5c1.3,0.9,3.9,1.5,6.2,1.5c5.7,0,8.5-3.2,8.5-7c0-3.6-2.1-5.5-6.2-7.1c-3.3-1.3-4.8-2.4-4.8-4.7
	c0-1.7,1.3-3.6,4.6-3.6c2.2,0,3.8,0.7,4.6,1.2l0.9-2.6C98.9,0.6,97.1,0,94.6,0c-4.7,0-7.8,2.8-7.8,6.6c0,3.4,2.4,5.5,6.4,6.9
	c3.3,1.3,4.6,2.6,4.6,4.8c0,2.4-1.9,4.1-5.1,4.1c-2.2,0-4.2-0.7-5.6-1.6L86.2,23.5z"/>
<path class="st1" d="M114,24.7V14.3l8.1-13.9h-3.6l-3.5,6.7c-0.9,1.8-1.8,3.4-2.4,5h-0.1c-0.8-1.7-1.5-3.2-2.4-5l-3.4-6.7h-3.6
	l7.7,14v10.3H114z"/>
<path class="st1" d="M124.4,24.7h13.5V22h-10.4V0.4h-3.1V24.7z"/>
<path class="st1" d="M150.2,24.7l8.7-24.3h-3.3l-4.1,12c-1.1,3.2-2.1,6.2-2.8,9h-0.1c-0.6-2.8-1.5-5.8-2.6-9.1l-3.8-12h-3.4
	l7.9,24.3H150.2z"/>
<path class="st1" d="M174,10.7h-9.4V3h10V0.4h-13.1v24.3h13.6V22h-10.5v-8.7h9.4V10.7z"/>
<path class="st1" d="M179.4,24.7h3.1V14.1h3c2.8,0.1,4.1,1.4,4.9,4.7c0.7,3,1.2,5.1,1.6,5.8h3.2c-0.5-0.9-1.1-3.3-1.9-6.7
	c-0.6-2.5-1.7-4.2-3.6-4.9V13c2.6-0.9,4.6-3,4.6-6.2c0-1.9-0.7-3.5-1.9-4.6c-1.5-1.4-3.7-2-7-2c-2.2,0-4.4,0.2-6,0.5V24.7z
	 M182.6,2.9c0.5-0.1,1.6-0.3,3.1-0.3c3.3,0,5.6,1.4,5.6,4.5c0,2.8-2.1,4.6-5.5,4.6h-3.2V2.9z"/>
</svg>
