<?xml version="1.0" encoding="utf-8"?>
<!-- Generator: Adobe Illustrator 22.1.0, SVG Export Plug-In . SVG Version: 6.00 Build 0)  -->
<svg version="1.1" id="Réteg_1" xmlns="http://www.w3.org/2000/svg" xmlns:xlink="http://www.w3.org/1999/xlink" x="0px" y="0px"
	 viewBox="0 0 238.2 52" style="enable-background:new 0 0 238.2 52;" xml:space="preserve">
<style type="text/css">
	.st0{fill:#78C08F;}
	.st1{fill:#FFFFFF;}
</style>
<g>
	<g>
		<path class="st0" d="M0.2,47.6h1.6v-4.4h1.9l2.7,4.4h1.9l-3-4.8c0.3-0.1,0.6-0.3,0.9-0.5c0.3-0.2,0.5-0.4,0.7-0.7
			c0.2-0.3,0.4-0.6,0.5-0.9c0.1-0.3,0.2-0.7,0.2-1.2c0-0.5-0.1-0.9-0.2-1.4c-0.2-0.4-0.4-0.8-0.7-1.1c-0.3-0.3-0.7-0.5-1.1-0.7
			c-0.4-0.2-1-0.3-1.6-0.3H0.2V47.6z M1.8,37.6h1.6c0.8,0,1.4,0.2,1.8,0.5c0.4,0.3,0.6,0.9,0.6,1.6c0,0.4-0.1,0.7-0.2,1
			C5.4,41,5.2,41.2,5,41.4c-0.2,0.2-0.5,0.3-0.8,0.4c-0.3,0.1-0.7,0.1-1,0.1H1.8V37.6z"/>
		<path class="st0" d="M17.2,42.7c0-0.5-0.1-1-0.3-1.4c-0.2-0.4-0.4-0.8-0.7-1.1c-0.3-0.3-0.7-0.5-1.1-0.7c-0.4-0.2-0.9-0.3-1.5-0.3
			c-0.6,0-1.2,0.1-1.7,0.3c-0.5,0.2-0.9,0.5-1.3,0.9c-0.4,0.4-0.6,0.8-0.8,1.3c-0.2,0.5-0.3,1.1-0.3,1.7c0,0.7,0.1,1.4,0.4,1.9
			c0.2,0.5,0.6,1,1,1.3c0.4,0.3,0.9,0.6,1.4,0.8c0.5,0.2,1.1,0.2,1.7,0.2c0.5,0,1,0,1.5-0.1c0.5-0.1,0.9-0.2,1.2-0.4L16.4,46
			c-0.4,0.2-0.8,0.3-1.2,0.4c-0.4,0.1-0.8,0.1-1.2,0.1c-0.9,0-1.6-0.3-2.1-0.8c-0.5-0.5-0.8-1.2-0.8-2.2v-0.1h6.1V42.7z M11.2,42.3
			c0.1-0.6,0.4-1.1,0.8-1.5c0.4-0.4,1-0.6,1.6-0.6c0.4,0,0.7,0.1,0.9,0.2c0.3,0.1,0.5,0.3,0.6,0.4c0.2,0.2,0.3,0.4,0.4,0.6
			c0.1,0.2,0.1,0.5,0.1,0.8H11.2z"/>
		<path class="st0" d="M20.6,41.6c0.7-0.7,1.5-1.1,2.4-1.1c0.6,0,1,0.2,1.2,0.5c0.3,0.3,0.4,0.7,0.4,1.2v5.5h1.6v-5.8
			c0-0.9-0.2-1.5-0.7-2c-0.5-0.5-1.2-0.7-2-0.7c-0.6,0-1.1,0.1-1.6,0.3c-0.5,0.2-0.9,0.5-1.3,1l-0.2-1.3H19v8.5h1.6V41.6z"/>
		<path class="st0" d="M34.6,40c-0.3-0.3-0.7-0.5-1.1-0.6c-0.4-0.1-0.8-0.2-1.3-0.2c-0.6,0-1.1,0.1-1.6,0.3
			c-0.5,0.2-0.9,0.5-1.2,0.9c-0.3,0.4-0.6,0.8-0.7,1.3c-0.2,0.5-0.3,1.1-0.3,1.7c0,0.7,0.1,1.3,0.3,1.9c0.2,0.5,0.5,1,0.8,1.3
			c0.3,0.3,0.7,0.6,1.1,0.8c0.4,0.2,0.9,0.3,1.3,0.3c0.6,0,1.1-0.1,1.4-0.3c0.4-0.2,0.8-0.4,1.1-0.8h0.1l0.2,1.1h1.3V34.9h-1.6V40z
			 M34.6,45.3c-0.6,0.7-1.3,1.1-2.2,1.1c-0.3,0-0.6-0.1-0.9-0.2c-0.3-0.1-0.5-0.3-0.8-0.5c-0.2-0.2-0.4-0.6-0.5-1
			c-0.1-0.4-0.2-0.9-0.2-1.4c0-0.5,0.1-1,0.2-1.4c0.1-0.4,0.3-0.7,0.6-0.9c0.2-0.2,0.5-0.4,0.8-0.5c0.3-0.1,0.6-0.2,0.9-0.2
			c0.8,0,1.4,0.3,2,1V45.3z"/>
		<path class="st0" d="M46.2,42.7c0-0.5-0.1-1-0.3-1.4c-0.2-0.4-0.4-0.8-0.7-1.1c-0.3-0.3-0.7-0.5-1.1-0.7c-0.4-0.2-0.9-0.3-1.5-0.3
			c-0.6,0-1.2,0.1-1.7,0.3c-0.5,0.2-0.9,0.5-1.3,0.9c-0.4,0.4-0.6,0.8-0.8,1.3c-0.2,0.5-0.3,1.1-0.3,1.7c0,0.7,0.1,1.4,0.4,1.9
			c0.2,0.5,0.6,1,1,1.3c0.4,0.3,0.9,0.6,1.4,0.8c0.5,0.2,1.1,0.2,1.7,0.2c0.5,0,1,0,1.5-0.1c0.5-0.1,0.9-0.2,1.2-0.4L45.4,46
			c-0.4,0.2-0.8,0.3-1.2,0.4c-0.4,0.1-0.8,0.1-1.2,0.1c-0.9,0-1.6-0.3-2.1-0.8c-0.5-0.5-0.8-1.2-0.8-2.2v-0.1h6.1V42.7z M40.2,42.3
			c0.1-0.6,0.4-1.1,0.8-1.5c0.4-0.4,1-0.6,1.6-0.6c0.4,0,0.7,0.1,0.9,0.2c0.3,0.1,0.5,0.3,0.6,0.4s0.3,0.4,0.4,0.6
			c0.1,0.2,0.1,0.5,0.1,0.8H40.2z"/>
		<path class="st0" d="M53.7,39.2h-6.1v1.2h4.2l-4.5,6.3v1h6.5v-1.2h-4.6l4.5-6.4V39.2z"/>
		<path class="st0" d="M58.3,45L58,46.3H58L57.6,45l-1.9-5.8H54l3.2,8.5h1.5l3.1-8.5h-1.7L58.3,45z"/>
		<path class="st0" d="M70.2,42.7c0-0.5-0.1-1-0.3-1.4c-0.2-0.4-0.4-0.8-0.7-1.1c-0.3-0.3-0.7-0.5-1.1-0.7c-0.4-0.2-0.9-0.3-1.5-0.3
			c-0.6,0-1.2,0.1-1.7,0.3c-0.5,0.2-0.9,0.5-1.3,0.9c-0.4,0.4-0.6,0.8-0.8,1.3c-0.2,0.5-0.3,1.1-0.3,1.7c0,0.7,0.1,1.4,0.4,1.9
			c0.2,0.5,0.6,1,1,1.3c0.4,0.3,0.9,0.6,1.4,0.8c0.5,0.2,1.1,0.2,1.7,0.2c0.5,0,1,0,1.5-0.1c0.5-0.1,0.9-0.2,1.2-0.4L69.4,46
			c-0.4,0.2-0.8,0.3-1.2,0.4c-0.4,0.1-0.8,0.1-1.2,0.1c-0.9,0-1.6-0.3-2.1-0.8c-0.5-0.5-0.8-1.2-0.8-2.2v-0.1h6.1V42.7z M64.2,42.3
			c0.1-0.6,0.4-1.1,0.8-1.5c0.4-0.4,1-0.6,1.6-0.6c0.4,0,0.7,0.1,0.9,0.2c0.3,0.1,0.5,0.3,0.6,0.4s0.3,0.4,0.4,0.6
			c0.1,0.2,0.1,0.5,0.1,0.8H64.2z M66.9,35.1l-1.3,2.4h1.3l1.8-2.4H66.9z"/>
		<path class="st0" d="M73.6,41.6c0.7-0.7,1.5-1.1,2.4-1.1c0.6,0,1,0.2,1.2,0.5c0.3,0.3,0.4,0.7,0.4,1.2v5.5h1.6v-5.8
			c0-0.9-0.2-1.5-0.7-2c-0.5-0.5-1.2-0.7-2-0.7c-0.6,0-1.1,0.1-1.6,0.3c-0.5,0.2-0.9,0.5-1.3,1l-0.2-1.3H72v8.5h1.6V41.6z"/>
		<path class="st0" d="M84.4,47.6l-0.2,0.5c-0.2,0.7-0.6,1.3-1,1.7c-0.4,0.4-0.9,0.7-1.5,0.9l0.7,1.3c0.8-0.3,1.4-0.7,2-1.3
			c0.5-0.6,1-1.4,1.4-2.4l3.3-9.2h-1.6L85.7,44l-0.6,2h0l-0.6-2l-1.8-4.8h-1.7L84.4,47.6z"/>
		<path class="st0" d="M94.2,36.3v11.3h3.1c0.8,0,1.6-0.1,2.4-0.3c0.7-0.2,1.4-0.5,2-1c0.6-0.5,1-1.1,1.4-1.8
			c0.3-0.8,0.5-1.7,0.5-2.8c0-0.9-0.1-1.7-0.4-2.4c-0.3-0.7-0.7-1.2-1.2-1.7c-0.5-0.5-1.1-0.8-1.8-1c-0.7-0.2-1.4-0.3-2.2-0.3H94.2z
			 M95.9,37.7h1.7c0.6,0,1.2,0.1,1.7,0.3c0.5,0.2,0.9,0.4,1.3,0.8c0.4,0.3,0.6,0.8,0.8,1.3c0.2,0.5,0.3,1.1,0.3,1.7
			c0,0.9-0.1,1.7-0.4,2.3c-0.3,0.6-0.6,1.1-1,1.4c-0.4,0.3-0.9,0.6-1.5,0.7c-0.6,0.1-1.1,0.2-1.7,0.2h-1.2V37.7z"/>
		<path class="st0" d="M106.7,36.3v10.1c0,0.4,0,0.8-0.1,1.1c-0.1,0.3-0.2,0.6-0.4,0.9c-0.4,0.4-0.9,0.6-1.6,0.6v1.3
			c0.6,0,1.2-0.1,1.7-0.3c0.6-0.2,1-0.5,1.4-1.1c0.3-0.4,0.5-0.9,0.6-1.4c0.1-0.5,0.1-1.2,0.1-2.1v-9.3H106.7z"/>
		<path class="st0" d="M122.2,42.7c0-0.5-0.1-1-0.3-1.4c-0.2-0.4-0.4-0.8-0.7-1.1c-0.3-0.3-0.7-0.5-1.1-0.7
			c-0.4-0.2-0.9-0.3-1.5-0.3c-0.6,0-1.2,0.1-1.7,0.3c-0.5,0.2-0.9,0.5-1.3,0.9c-0.4,0.4-0.6,0.8-0.8,1.3c-0.2,0.5-0.3,1.1-0.3,1.7
			c0,0.7,0.1,1.4,0.4,1.9c0.2,0.5,0.6,1,1,1.3c0.4,0.3,0.9,0.6,1.4,0.8c0.5,0.2,1.1,0.2,1.7,0.2c0.5,0,1,0,1.5-0.1
			c0.5-0.1,0.9-0.2,1.2-0.4l-0.3-1.2c-0.4,0.2-0.8,0.3-1.2,0.4c-0.4,0.1-0.8,0.1-1.2,0.1c-0.9,0-1.6-0.3-2.1-0.8
			c-0.5-0.5-0.8-1.2-0.8-2.2v-0.1h6.1V42.7z M116.2,42.3c0.1-0.6,0.4-1.1,0.8-1.5c0.4-0.4,1-0.6,1.6-0.6c0.4,0,0.7,0.1,0.9,0.2
			c0.3,0.1,0.5,0.3,0.6,0.4c0.2,0.2,0.3,0.4,0.4,0.6c0.1,0.2,0.1,0.5,0.1,0.8H116.2z M118.9,35.1l-1.3,2.4h1.3l1.8-2.4H118.9z"/>
		<path class="st0" d="M129.1,39.7c-0.4-0.2-0.8-0.3-1.3-0.4c-0.4-0.1-0.9-0.1-1.3-0.1c-0.4,0-0.9,0.1-1.2,0.2
			c-0.4,0.1-0.7,0.3-1,0.5c-0.3,0.2-0.5,0.4-0.6,0.7c-0.2,0.3-0.2,0.6-0.2,1c0,0.6,0.2,1.1,0.6,1.4c0.4,0.4,1,0.7,1.7,0.9l0.6,0.2
			c0.5,0.2,0.9,0.3,1.2,0.5c0.3,0.2,0.4,0.4,0.4,0.8c0,0.4-0.2,0.7-0.5,0.9c-0.3,0.2-0.7,0.3-1.3,0.3c-0.4,0-0.8,0-1.2-0.1
			c-0.4-0.1-0.8-0.2-1.1-0.4l-0.4,1.2c0.4,0.2,0.8,0.3,1.3,0.4c0.5,0.1,1,0.1,1.6,0.1c1,0,1.8-0.2,2.4-0.7c0.6-0.5,0.9-1,0.9-1.8
			c0-0.6-0.2-1.1-0.6-1.5c-0.4-0.4-1-0.7-1.8-0.9l-0.5-0.2c-0.6-0.2-1-0.4-1.2-0.5c-0.2-0.2-0.3-0.4-0.3-0.6c0-0.3,0.1-0.6,0.4-0.8
			c0.3-0.2,0.7-0.3,1.3-0.3c0.3,0,0.6,0,1,0.1s0.7,0.2,1.1,0.4L129.1,39.7z"/>
		<path class="st0" d="M135.2,47.6h1.7v-4.4h1.7c0.6,0,1.2-0.1,1.7-0.2c0.5-0.1,0.9-0.4,1.3-0.6c0.4-0.3,0.7-0.7,0.9-1.1
			c0.2-0.4,0.3-1,0.3-1.6c0-0.6-0.1-1-0.3-1.5c-0.2-0.4-0.5-0.8-0.8-1.1c-0.3-0.3-0.8-0.5-1.2-0.7c-0.5-0.1-1-0.2-1.6-0.2h-3.6V47.6
			z M136.9,37.6h1.5c0.3,0,0.6,0,1,0.1c0.3,0.1,0.6,0.2,0.8,0.4c0.2,0.2,0.4,0.4,0.6,0.7c0.1,0.3,0.2,0.6,0.2,1
			c0,0.4-0.1,0.8-0.2,1.1c-0.2,0.3-0.4,0.5-0.6,0.7c-0.3,0.2-0.6,0.3-1,0.3c-0.4,0.1-0.8,0.1-1.2,0.1h-1V37.6z"/>
		<path class="st0" d="M144.7,41.1c0.5-0.3,1-0.4,1.4-0.5c0.4-0.1,0.8-0.1,1.1-0.1c0.5,0,0.9,0.1,1.3,0.3c0.3,0.2,0.5,0.6,0.5,1.1
			v0.6h-1.6c-1.2,0-2.1,0.2-2.8,0.7c-0.7,0.5-1.1,1.1-1.1,2c0,0.4,0.1,0.7,0.2,1c0.1,0.3,0.3,0.6,0.6,0.8c0.3,0.2,0.5,0.4,0.9,0.5
			c0.3,0.1,0.7,0.2,1.1,0.2c0.5,0,1-0.1,1.5-0.2c0.4-0.2,0.9-0.4,1.2-0.8h0l0.2,1.1h1.3v-5.4c0-0.6-0.1-1.1-0.2-1.4
			c-0.2-0.4-0.4-0.7-0.7-0.9c-0.3-0.2-0.6-0.4-1-0.5c-0.4-0.1-0.8-0.2-1.3-0.2c-0.3,0-0.6,0-0.9,0.1c-0.3,0-0.5,0.1-0.8,0.2
			c-0.3,0.1-0.5,0.2-0.8,0.3c-0.3,0.1-0.5,0.2-0.8,0.4L144.7,41.1z M148.9,45.3c-0.3,0.4-0.7,0.7-1.1,0.9c-0.4,0.2-0.8,0.3-1.2,0.3
			c-0.2,0-0.4,0-0.6-0.1c-0.2,0-0.3-0.1-0.5-0.2c-0.1-0.1-0.2-0.2-0.3-0.4c-0.1-0.2-0.1-0.4-0.1-0.6c0-0.4,0.2-0.8,0.6-1.1
			c0.4-0.3,1-0.4,1.9-0.4h1.3V45.3z"/>
		<path class="st0" d="M154.5,47.6v-4.3c0-0.4,0.1-0.8,0.2-1.2c0.1-0.3,0.3-0.6,0.5-0.9c0.2-0.2,0.5-0.4,0.8-0.5
			c0.3-0.1,0.6-0.2,1-0.2c0.2,0,0.4,0,0.6,0.1c0.2,0,0.3,0.1,0.5,0.2l0.3-1.5c-0.2,0-0.4-0.1-0.6-0.1c-0.2,0-0.5,0-0.8,0
			c-0.6,0-1.2,0.2-1.6,0.5c-0.5,0.3-0.8,0.8-1,1.3l-0.3-1.8H153v8.5H154.5z"/>
		<path class="st0" d="M164.4,39.2H162v-2.7h-1.6v2.7h-1.3v1.2h1.3v5.1c0,0.7,0.2,1.2,0.6,1.6c0.4,0.4,1,0.5,1.8,0.5
			c0.4,0,0.8,0,1.2-0.1c0.4-0.1,0.7-0.2,0.9-0.3l-0.3-1.2c-0.2,0.1-0.5,0.1-0.8,0.2c-0.3,0.1-0.6,0.1-0.8,0.1
			c-0.3,0-0.6-0.1-0.8-0.2c-0.2-0.1-0.3-0.4-0.3-0.8v-4.9h2.5V39.2z"/>
		<path class="st0" d="M169.4,47.6l-0.2,0.5c-0.2,0.7-0.6,1.3-1,1.7c-0.4,0.4-0.9,0.7-1.5,0.9l0.7,1.3c0.8-0.3,1.4-0.7,2-1.3
			c0.5-0.6,1-1.4,1.4-2.4l3.3-9.2h-1.6l-1.6,4.8l-0.6,2h0l-0.6-2l-1.8-4.8h-1.7L169.4,47.6z"/>
		<path class="st0" d="M180.1,39.7c-0.4-0.2-0.8-0.3-1.3-0.4c-0.4-0.1-0.9-0.1-1.3-0.1c-0.4,0-0.9,0.1-1.2,0.2
			c-0.4,0.1-0.7,0.3-1,0.5c-0.3,0.2-0.5,0.4-0.6,0.7c-0.2,0.3-0.2,0.6-0.2,1c0,0.6,0.2,1.1,0.6,1.4c0.4,0.4,1,0.7,1.7,0.9l0.6,0.2
			c0.5,0.2,0.9,0.3,1.2,0.5c0.3,0.2,0.4,0.4,0.4,0.8c0,0.4-0.2,0.7-0.5,0.9c-0.3,0.2-0.7,0.3-1.3,0.3c-0.4,0-0.8,0-1.2-0.1
			c-0.4-0.1-0.8-0.2-1.1-0.4l-0.4,1.2c0.4,0.2,0.8,0.3,1.3,0.4c0.5,0.1,1,0.1,1.6,0.1c1,0,1.8-0.2,2.4-0.7c0.6-0.5,0.9-1,0.9-1.8
			c0-0.6-0.2-1.1-0.6-1.5c-0.4-0.4-1-0.7-1.8-0.9l-0.5-0.2c-0.6-0.2-1-0.4-1.2-0.5c-0.2-0.2-0.3-0.4-0.3-0.6c0-0.3,0.1-0.6,0.4-0.8
			c0.3-0.2,0.7-0.3,1.3-0.3c0.3,0,0.6,0,1,0.1s0.7,0.2,1.1,0.4L180.1,39.7z"/>
		<path class="st0" d="M187.7,39.2h-6.1v1.2h4.2l-4.5,6.3v1h6.5v-1.2h-4.6l4.5-6.4V39.2z"/>
		<path class="st0" d="M196.2,42.7c0-0.5-0.1-1-0.3-1.4c-0.2-0.4-0.4-0.8-0.7-1.1c-0.3-0.3-0.7-0.5-1.1-0.7
			c-0.4-0.2-0.9-0.3-1.5-0.3c-0.6,0-1.2,0.1-1.7,0.3c-0.5,0.2-0.9,0.5-1.3,0.9c-0.4,0.4-0.6,0.8-0.8,1.3c-0.2,0.5-0.3,1.1-0.3,1.7
			c0,0.7,0.1,1.4,0.4,1.9c0.2,0.5,0.6,1,1,1.3c0.4,0.3,0.9,0.6,1.4,0.8c0.5,0.2,1.1,0.2,1.7,0.2c0.5,0,1,0,1.5-0.1
			c0.5-0.1,0.9-0.2,1.2-0.4l-0.3-1.2c-0.4,0.2-0.8,0.3-1.2,0.4c-0.4,0.1-0.8,0.1-1.2,0.1c-0.9,0-1.6-0.3-2.1-0.8
			c-0.5-0.5-0.8-1.2-0.8-2.2v-0.1h6.1V42.7z M190.2,42.3c0.1-0.6,0.4-1.1,0.8-1.5c0.4-0.4,1-0.6,1.6-0.6c0.4,0,0.7,0.1,0.9,0.2
			c0.3,0.1,0.5,0.3,0.6,0.4s0.3,0.4,0.4,0.6c0.1,0.2,0.1,0.5,0.1,0.8H190.2z"/>
		<path class="st0" d="M199.5,47.6v-4.3c0-0.4,0.1-0.8,0.2-1.2c0.1-0.3,0.3-0.6,0.5-0.9c0.2-0.2,0.5-0.4,0.8-0.5
			c0.3-0.1,0.6-0.2,1-0.2c0.2,0,0.4,0,0.6,0.1c0.2,0,0.3,0.1,0.5,0.2l0.3-1.5c-0.2,0-0.4-0.1-0.6-0.1c-0.2,0-0.5,0-0.8,0
			c-0.6,0-1.2,0.2-1.6,0.5c-0.5,0.3-0.8,0.8-1,1.3l-0.3-1.8H198v8.5H199.5z"/>
		<path class="st0" d="M208.3,45l-0.3,1.3H208l-0.3-1.3l-1.9-5.8H204l3.2,8.5h1.5l3.2-8.5h-1.7L208.3,45z"/>
		<path class="st0" d="M220.2,42.7c0-0.5-0.1-1-0.3-1.4c-0.2-0.4-0.4-0.8-0.7-1.1c-0.3-0.3-0.7-0.5-1.1-0.7
			c-0.4-0.2-0.9-0.3-1.5-0.3c-0.6,0-1.2,0.1-1.7,0.3c-0.5,0.2-0.9,0.5-1.3,0.9c-0.4,0.4-0.6,0.8-0.8,1.3c-0.2,0.5-0.3,1.1-0.3,1.7
			c0,0.7,0.1,1.4,0.4,1.9c0.2,0.5,0.6,1,1,1.3c0.4,0.3,0.9,0.6,1.4,0.8c0.5,0.2,1.1,0.2,1.7,0.2c0.5,0,1,0,1.5-0.1
			c0.5-0.1,0.9-0.2,1.2-0.4l-0.3-1.2c-0.4,0.2-0.8,0.3-1.2,0.4c-0.4,0.1-0.8,0.1-1.2,0.1c-0.9,0-1.6-0.3-2.1-0.8
			c-0.5-0.5-0.8-1.2-0.8-2.2v-0.1h6.1V42.7z M214.2,42.3c0.1-0.6,0.4-1.1,0.8-1.5c0.4-0.4,1-0.6,1.6-0.6c0.4,0,0.7,0.1,0.9,0.2
			c0.3,0.1,0.5,0.3,0.6,0.4s0.3,0.4,0.4,0.6c0.1,0.2,0.1,0.5,0.1,0.8H214.2z"/>
		<path class="st0" d="M227.7,39.2h-6.1v1.2h4.2l-4.5,6.3v1h6.5v-1.2h-4.6l4.5-6.4V39.2z"/>
		<path class="st0" d="M236.4,41.5c-0.2-0.5-0.5-1-0.9-1.3c-0.4-0.3-0.8-0.6-1.3-0.8c-0.5-0.2-1-0.3-1.6-0.3c-0.6,0-1.1,0.1-1.6,0.3
			c-0.5,0.2-0.9,0.5-1.3,0.8c-0.4,0.4-0.7,0.8-0.9,1.4c-0.2,0.5-0.3,1.1-0.3,1.8c0,0.7,0.1,1.3,0.3,1.8c0.2,0.5,0.5,1,0.9,1.3
			c0.4,0.4,0.8,0.6,1.3,0.8c0.5,0.2,1,0.3,1.6,0.3c0.6,0,1.1-0.1,1.6-0.3c0.5-0.2,0.9-0.5,1.3-0.8c0.4-0.4,0.7-0.8,0.9-1.4
			c0.2-0.5,0.3-1.2,0.3-1.8C236.8,42.6,236.7,42,236.4,41.5z M234.9,44.8c-0.1,0.4-0.3,0.7-0.5,0.9c-0.2,0.2-0.5,0.4-0.8,0.5
			c-0.3,0.1-0.6,0.1-0.9,0.1c-0.3,0-0.6-0.1-0.9-0.2c-0.3-0.1-0.6-0.3-0.8-0.5c-0.2-0.2-0.4-0.6-0.6-0.9c-0.1-0.4-0.2-0.8-0.2-1.4
			c0-0.6,0.1-1.1,0.2-1.5c0.1-0.4,0.3-0.7,0.5-0.9c0.2-0.2,0.5-0.4,0.8-0.5c0.3-0.1,0.6-0.1,0.9-0.1c0.3,0,0.6,0.1,0.9,0.2
			c0.3,0.1,0.6,0.3,0.8,0.5c0.2,0.2,0.4,0.6,0.6,0.9c0.1,0.4,0.2,0.8,0.2,1.4C235.1,44,235,44.5,234.9,44.8z M233.4,35.1h-1.8
			l-1.4,2.4h1.2L233.4,35.1z M236.3,35.1h-1.8l-1.4,2.4h1.2L236.3,35.1z"/>
	</g>
	<g>
		<path class="st1" d="M13,25.8c1.6,0,3.2-0.3,4.6-0.9c1.5-0.6,2.7-1.4,3.7-2.3c2.1-2,3.3-4.1,3.8-6.4v-4.7H11.3v4.7h7.1
			c-0.3,1.2-0.9,2.2-1.9,2.9c-0.9,0.7-2.1,1.1-3.6,1.1c-2,0-3.7-0.7-4.9-2c-1.2-1.3-1.8-3.1-1.8-5.3c0-2.2,0.6-4,1.8-5.3
			c1.2-1.3,2.9-2,5-2c2.1,0,3.6,0.9,4.6,2.8H25c-0.9-2.6-2.4-4.7-4.6-6.2C18.3,0.7,15.8,0,13,0C9.3,0,6.3,1.2,3.8,3.7
			C1.3,6.1,0,9.2,0,12.9s1.3,6.8,3.8,9.3C6.3,24.6,9.3,25.8,13,25.8L13,25.8z"/>
		<path class="st1" d="M35.6,25.6V0.4h-6.2v25.3H35.6z"/>
		<path class="st1" d="M57.9,16.2L47.6,0.3h-6.2v25.3h6.2V9.7l10.3,15.9h6.2V0.3h-6.2V16.2z"/>
		<path class="st1" d="M92.1,25.6L83.4,0.3h-7.5l-8.8,25.3h6.6l1.4-4.2h9.1l1.4,4.2H92.1z M79.6,7.7l3,9h-6L79.6,7.7z"/>
		<path class="st1" d="M116.9,5.6c0.5,0.5,0.8,1.2,0.9,2.1h6.7c-0.1-2.7-0.9-4.6-2.6-5.8C120.2,0.6,118,0,115.3,0
			c-2.7,0-5,0.7-6.7,2.1c-1.8,1.4-2.6,3.3-2.6,5.7c0,1.2,0.2,2.2,0.7,3.1c0.5,0.9,1,1.5,1.8,2c0.7,0.5,1.5,0.9,2.4,1.2
			c0.9,0.3,1.8,0.6,2.7,0.8c0.9,0.2,1.7,0.5,2.4,0.7c0.7,0.3,1.3,0.6,1.8,1.1c0.5,0.5,0.7,1,0.7,1.8c0,0.7-0.3,1.3-0.8,1.8
			s-1.2,0.7-2.1,0.7c-1.9,0-2.9-1-3.1-3h-6.6c0,2.5,0.9,4.5,2.6,5.8c1.7,1.4,4,2.1,6.9,2.1s5.1-0.8,6.9-2.3c1.7-1.5,2.6-3.4,2.6-5.5
			c0-1.2-0.2-2.3-0.7-3.1c-0.5-0.9-1.1-1.6-1.8-2c-0.7-0.5-1.5-0.9-2.4-1.2c-0.9-0.3-1.8-0.6-2.7-0.8c-0.9-0.2-1.7-0.5-2.4-0.7
			c-0.7-0.3-1.3-0.6-1.8-1.1c-0.5-0.5-0.7-1.1-0.7-1.9c0-0.8,0.2-1.4,0.7-1.8c0.5-0.4,1.1-0.6,1.9-0.6
			C115.8,4.9,116.4,5.1,116.9,5.6z"/>
		<path class="st1" d="M142.2,17.5L151,0.4h-7l-4.8,11.4l-4.9-11.4h-7l8.7,17.1v8.1h6.2V17.5z"/>
		<path class="st1" d="M154.5,25.6h13.8V21h-7.7V0.4h-6.2V25.6z"/>
		<path class="st1" d="M185.7,25.6l9-25.3h-6.6l-6.3,19.3l-6.3-19.3H169l9,25.3H185.7z"/>
		<path class="st1" d="M197.5,0.3v25.3h15.3V21h-9.1v-5.9h8.1v-4.7h-8.1V5h9.1V0.3H197.5z"/>
		<path class="st1" d="M225.4,15.8l5.7,9.8h7.2L232,15.3c2-0.6,3.5-1.6,4.4-3c0.9-1.4,1.3-2.8,1.3-4.3c0-2.1-0.8-4-2.4-5.5
			c-1.6-1.5-3.9-2.3-6.8-2.3h-10v25.3h6.2v-9.8H225.4z M228.4,5c0.9,0,1.6,0.3,2.2,0.9c0.6,0.6,0.8,1.3,0.8,2.2s-0.3,1.6-0.8,2.2
			c-0.5,0.6-1.3,0.8-2.2,0.8h-3.8V5H228.4z"/>
	</g>
</g>
</svg>
